<?xml version="1.0" standalone="no"?>
<!DOCTYPE svg PUBLIC "-//W3C//DTD SVG 20010904//EN"
 "http://www.w3.org/TR/2001/REC-SVG-20010904/DTD/svg10.dtd">
<svg version="1.0" xmlns="http://www.w3.org/2000/svg"
 width="710.000000pt" height="710.000000pt" viewBox="0 0 710.000000 710.000000"
 preserveAspectRatio="xMidYMid meet">
<metadata>
Created by potrace 1.11, written by Peter Selinger 2001-2013
</metadata>
<g transform="translate(0.000000,710.000000) scale(0.100000,-0.100000)"
fill="#000000" stroke="none">
<path d="M3370 6597 c-3 -3 -34 -7 -70 -11 -223 -21 -474 -94 -697 -202 -440
-212 -790 -556 -1009 -991 -91 -181 -177 -440 -200 -603 -2 -19 -6 -44 -9 -55
-19 -90 -26 -398 -12 -547 23 -250 103 -521 223 -759 243 -484 673 -871 1179
-1062 78 -30 176 -61 225 -73 71 -16 164 -35 196 -39 21 -3 48 -7 59 -10 112
-24 474 -24 596 0 13 3 44 8 69 11 25 3 106 21 180 40 752 192 1352 782 1560
1537 20 75 24 90 35 147 3 14 7 35 9 48 36 176 41 527 11 712 -119 731 -573
1341 -1229 1650 -210 100 -350 141 -656 196 -41 7 -454 17 -460 11z m320
-1612 c19 -4 73 -25 119 -47 264 -126 392 -439 290 -714 -71 -192 -223 -320
-439 -371 -24 -5 -183 -5 -209 1 -188 42 -348 172 -422 343 -41 95 -56 242
-35 343 44 209 220 389 431 441 70 17 186 19 265 4z"/>
<path d="M2276 1653 c-1 -1 -97 -3 -213 -3 -256 -2 -283 -7 -431 -85 -19 -9
-64 -47 -101 -84 -116 -116 -172 -260 -166 -429 8 -241 163 -445 402 -530 44
-15 179 -17 1757 -19 1865 -4 1756 -7 1884 52 154 71 281 228 318 396 13 58
12 191 -2 250 -16 69 -64 177 -97 218 -53 64 -131 130 -194 163 -139 73 -28
69 -1675 71 -814 1 -1481 1 -1482 0z"/>
</g>
</svg>
